<svg width="430" height="80" viewBox="0 0 430 80" fill="none" xmlns="http://www.w3.org/2000/svg">
<g clip-path="url(#clip0)">
<rect width="430" height="80" fill="white"/>
<path fill-rule="evenodd" clip-rule="evenodd" d="M0 8.30989L39.263 0V80L8.38627 58.7324L0 8.30989Z" fill="#36507A"/>
<path fill-rule="evenodd" clip-rule="evenodd" d="M78.5259 8.30989L39.263 0V80L70.1397 58.7324L78.5259 8.30989Z" fill="#223C65"/>
<path fill-rule="evenodd" clip-rule="evenodd" d="M39.2223 9.15948L34.2824 10.4351V58.2199L21.815 49.1928L16.6402 14.1637L9.34798 15.8317L15.5816 53.1175L39.2223 70.0926V9.15962V9.15948Z" fill="white"/>
<path fill-rule="evenodd" clip-rule="evenodd" d="M39.2223 9.15948L44.1621 10.4351V58.2199L56.6295 49.1928L61.8046 14.1637L69.0967 15.8317L62.863 53.1175L39.2223 70.0926V9.15962V9.15948Z" fill="#BCDCE9"/>
<path d="M123.359 34.2432H123.57L129.977 58H139.1L149.041 19.9521H139.048L133.906 45.6602H133.695L127.341 19.9521H119.589L113.234 45.6602H113.023L107.882 19.9521H97.8885L107.829 58H116.952L123.359 34.2432ZM165.325 48.9297C164.666 50.8809 162.715 52.0674 160.21 52.0674C156.835 52.0674 154.541 49.6943 154.541 46.2666V45.6865H173.921V43.0498C173.921 34.2695 168.41 28.6006 159.762 28.6006C150.982 28.6006 145.471 34.5068 145.471 43.7881C145.471 53.0693 150.929 58.6855 160.078 58.6855C167.593 58.6855 172.866 54.8623 173.763 48.9297H165.325ZM159.92 35.2451C162.873 35.2451 164.956 37.3018 165.114 40.3604H154.673C154.91 37.3809 157.046 35.2451 159.92 35.2451ZM193.317 58.4219C200.515 58.4219 204.681 53.0166 204.681 43.6562C204.681 34.2695 200.489 28.8643 193.238 28.8643C189.151 28.8643 186.013 30.9209 184.563 34.375H184.378V19.9521H175.018V58H184.325V53.0693H184.51C185.96 56.3916 189.098 58.4219 193.317 58.4219ZM189.731 36.168C193.027 36.168 195.136 39.0947 195.136 43.6562C195.136 48.2178 193.053 51.1182 189.731 51.1182C186.461 51.1182 184.352 48.2441 184.325 43.6562C184.352 39.1211 186.488 36.168 189.731 36.168ZM205.171 37.9873C205.171 42.3643 208.072 45.3174 213.714 46.4248L218.75 47.4268C221.361 47.9541 222.284 48.6396 222.284 49.9316C222.284 51.4346 220.754 52.3838 218.276 52.3838C215.56 52.3838 213.952 51.1973 213.556 49.0615H204.486C204.987 54.8359 209.733 58.6855 218.276 58.6855C226.16 58.6855 231.539 54.8623 231.539 48.9033C231.539 44.6055 228.902 42.2324 222.785 41.0459L217.722 40.0439C214.98 39.4902 214.136 38.6992 214.136 37.46C214.136 35.9043 215.666 34.9023 217.933 34.9023C220.517 34.9023 222.02 36.3262 222.205 38.3564H230.748C230.589 32.4502 225.843 28.6006 217.933 28.6006C210.076 28.6006 205.171 32.2393 205.171 37.9873ZM236.854 26.0166C239.438 26.0166 241.468 23.96 241.468 21.5078C241.468 19.0293 239.438 16.9727 236.854 16.9727C234.297 16.9727 232.266 19.0293 232.266 21.5078C232.266 23.96 234.297 26.0166 236.854 26.0166ZM232.24 58H241.574V29.2861H232.24V58ZM246.322 22.8525V29.2861H242.42V36.168H246.322V50.1162C246.322 55.7588 249.275 58.0527 256.737 58.0527C258.556 58.0527 259.928 57.8945 260.824 57.71V51.0654C260.27 51.1709 259.717 51.1973 258.978 51.1973C256.737 51.1973 255.682 50.1953 255.682 48.2178V36.168H260.85V29.2861H255.682V22.8525H246.322ZM281.524 48.9297C280.865 50.8809 278.914 52.0674 276.409 52.0674C273.034 52.0674 270.74 49.6943 270.74 46.2666V45.6865H290.12V43.0498C290.12 34.2695 284.609 28.6006 275.961 28.6006C267.181 28.6006 261.67 34.5068 261.67 43.7881C261.67 53.0693 267.128 58.6855 276.277 58.6855C283.792 58.6855 289.065 54.8623 289.962 48.9297H281.524ZM276.119 35.2451C279.072 35.2451 281.155 37.3018 281.313 40.3604H270.872C271.109 37.3809 273.245 35.2451 276.119 35.2451ZM290.452 46.7939C290.584 54.2822 296.86 58.6592 306.352 58.6592C316.398 58.6592 322.383 53.8076 322.383 46.1611C322.383 40.1758 318.692 36.8799 310.57 35.3242L306.668 34.5859C302.529 33.7949 300.788 32.6875 300.788 30.6836C300.788 28.4424 302.871 26.8604 306.378 26.8604C309.885 26.8604 312.469 28.4951 312.627 31.2373H321.618C321.513 23.9863 315.87 19.293 306.299 19.293C297.545 19.293 291.191 24.0127 291.191 31.3428C291.191 37.1436 295.119 40.8613 302.713 42.2852L306.615 43.0234C311.124 43.8936 312.759 44.9746 312.759 47.084C312.759 49.4043 310.307 51.0918 306.536 51.0918C302.819 51.0918 299.892 49.5098 299.444 46.7939H290.452ZM342.517 48.9297C341.858 50.8809 339.907 52.0674 337.402 52.0674C334.027 52.0674 331.733 49.6943 331.733 46.2666V45.6865H351.113V43.0498C351.113 34.2695 345.602 28.6006 336.954 28.6006C328.173 28.6006 322.662 34.5068 322.662 43.7881C322.662 53.0693 328.12 58.6855 337.27 58.6855C344.785 58.6855 350.058 54.8623 350.954 48.9297H342.517ZM337.112 35.2451C340.065 35.2451 342.148 37.3018 342.306 40.3604H331.865C332.102 37.3809 334.238 35.2451 337.112 35.2451ZM354.398 22.8525V29.2861H350.496V36.168H354.398V50.1162C354.398 55.7588 357.351 58.0527 364.813 58.0527C366.632 58.0527 368.004 57.8945 368.9 57.71V51.0654C368.346 51.1709 367.793 51.1973 367.054 51.1973C364.813 51.1973 363.758 50.1953 363.758 48.2178V36.168H368.926V29.2861H363.758V22.8525H354.398ZM398.078 29.2861H388.744V45.5283C388.744 48.7715 386.898 50.9336 383.998 50.9336C381.071 50.9336 379.304 49.1143 379.304 45.7129V29.2861H369.944V47.7432C369.944 54.5195 374.295 58.5537 380.465 58.5537C384.789 58.5537 387.531 56.3389 388.823 52.5684H389.008V58H398.078V29.2861ZM418.106 28.8643C413.967 28.8643 410.855 30.9473 409.405 34.4014H409.221V29.2861H399.913V67.2812H409.273V53.0957H409.458C410.855 56.418 414.02 58.4219 418.238 58.4219C425.384 58.4219 429.576 53.0166 429.576 43.6562C429.576 34.2695 425.357 28.8643 418.106 28.8643ZM414.626 51.1182C411.33 51.1182 409.247 48.2178 409.221 43.6562C409.247 39.1211 411.356 36.168 414.626 36.168C417.922 36.168 420.031 39.0947 420.031 43.6562C420.031 48.2178 417.948 51.1182 414.626 51.1182Z" fill="#223C65"/>
</g>
<defs>
<clipPath id="clip0">
<rect width="430" height="80" fill="white"/>
</clipPath>
</defs>
</svg>
